<?xml version="1.0" encoding="UTF-8"?>
<svg id="Layer_1" data-name="Layer 1" xmlns="http://www.w3.org/2000/svg" viewBox="0 0 190.43 81.62">
  <defs>
    <style>
      .cls-1 {
        fill: #fff;
      }

      .cls-2 {
        fill: #0b0c10;
      }

      .cls-3 {
        fill: none;
        stroke: #fff;
        stroke-miterlimit: 10;
        stroke-width: 2px;
      }
    </style>
  </defs>
  <rect class="cls-2" width="190.43" height="81.62"/>
  <g>
    <g>
      <path class="cls-3" d="M52.84,60.55h-29.3c-6.57,0-11.91-5.26-11.91-11.72,0-3.68,1.71-6.91,4.38-9.09-2.53-2.1-4.04-5.33-4.04-8.94,0-6.46,5-11.72,11.57-11.72h29.3c6.57,0,11.5,5.26,11.5,11.72,0,3.61-1.51,6.84-4.04,8.94,2.74,2.18,4.45,5.41,4.45,9.09,0,6.46-5.34,11.72-11.91,11.72ZM54.89,34.4v-4.51H21.49v4.51h33.4ZM54.89,49.73v-4.51H21.49v4.51h33.4Z"/>
      <path class="cls-3" d="M120.47,47.47c0,7.21-5.34,13.07-11.91,13.07h-29.3c-6.57,0-11.91-5.86-11.91-13.07v-15.32c0-7.21,5.34-13.07,11.91-13.07h29.3c6.57,0,11.91,5.86,11.91,13.07v15.32ZM110.61,49.73v-19.83h-33.4v19.83h33.4Z"/>
      <path class="cls-3" d="M164.28,60.55h-29.3c-6.57,0-11.91-5.26-11.91-11.72,0-3.68,1.71-6.91,4.38-9.09-2.53-2.1-4.04-5.33-4.04-8.94,0-6.46,5-11.72,11.57-11.72h29.3c6.57,0,11.5,5.26,11.5,11.72,0,3.61-1.51,6.84-4.04,8.94,2.74,2.18,4.45,5.41,4.45,9.09,0,6.46-5.34,11.72-11.91,11.72ZM166.33,34.4v-4.51h-33.4v4.51h33.4ZM166.33,49.73v-4.51h-33.4v4.51h33.4Z"/>
    </g>
    <g>
      <path class="cls-1" d="M31.81,73.98h-3.25l-1.39-1.58h-8.27l-1.39,1.58h-3.25l6.54-7.35c.53-.58,1.3-1.06,2.24-1.06s1.71.48,2.22,1.06l6.54,7.35ZM25.3,70.26l-2.28-2.62-2.28,2.62h4.55Z"/>
      <path class="cls-1" d="M45.06,73.98h-10.7c-1.71,0-3.09-1.16-3.09-2.59v-3.04c0-1.43,1.39-2.59,3.09-2.59h10.7v2.15h-11.23v3.94h11.23v2.15Z"/>
      <path class="cls-1" d="M62.32,73.98h-3.25l-1.39-1.58h-8.27l-1.39,1.58h-3.25l6.54-7.35c.53-.58,1.3-1.06,2.24-1.06s1.71.48,2.22,1.06l6.54,7.35ZM55.82,70.26l-2.28-2.62-2.28,2.62h4.55Z"/>
      <path class="cls-1" d="M76.11,71.39c0,1.43-1.39,2.59-3.09,2.59h-10.7v-8.23h10.7c1.71,0,3.09,1.16,3.09,2.59v3.04ZM73.55,71.84v-3.94h-8.68v3.94h8.68Z"/>
      <path class="cls-1" d="M91.04,73.98h-10.7c-1.71,0-3.09-1.16-3.09-2.59v-3.04c0-1.43,1.39-2.59,3.09-2.59h10.7v2.15h-11.23v.89h11.23v2.15h-11.23v.89h11.23v2.15Z"/>
      <path class="cls-1" d="M109.24,73.98h-2.56v-6.26l-3.75,5.38c-.44.63-1.28,1.06-2.22,1.06s-1.76-.43-2.2-1.06l-3.77-5.38v6.26h-2.56v-6.26c0-1.19,1.16-2.15,2.56-2.15,1,0,1.8.48,2.28,1.15l3.7,5.29,3.71-5.29c.46-.67,1.28-1.15,2.26-1.15,1.42,0,2.56.95,2.56,2.15v6.26Z"/>
      <path class="cls-1" d="M125.47,65.75l-6.45,5.2c-.18.15-.36.27-.57.37v2.65h-2.56v-2.65c-.2-.1-.39-.22-.55-.37l-6.45-5.2h3.77l4.51,3.79,4.53-3.79h3.77Z"/>
      <path class="cls-1" d="M124.83,73.98h-2.56v-2.15h2.56v2.15Z"/>
      <path class="cls-1" d="M139.76,73.98h-10.7c-1.71,0-3.09-1.16-3.09-2.59v-3.04c0-1.43,1.39-2.59,3.09-2.59h10.7v2.15h-11.23v3.94h11.23v2.15Z"/>
      <path class="cls-1" d="M154.23,71.39c0,1.43-1.39,2.59-3.09,2.59h-7.61c-1.71,0-3.09-1.16-3.09-2.59v-3.04c0-1.43,1.39-2.59,3.09-2.59h7.61c1.71,0,3.09,1.16,3.09,2.59v3.04ZM151.67,71.84v-3.94h-8.67v3.94h8.67Z"/>
      <path class="cls-1" d="M172.43,73.98h-2.56v-6.26l-3.75,5.38c-.44.63-1.28,1.06-2.22,1.06s-1.76-.43-2.2-1.06l-3.77-5.38v6.26h-2.56v-6.26c0-1.19,1.16-2.15,2.56-2.15,1,0,1.79.48,2.28,1.15l3.7,5.29,3.71-5.29c.46-.67,1.28-1.15,2.26-1.15,1.42,0,2.56.95,2.56,2.15v6.26Z"/>
    </g>
    <g>
      <polygon class="cls-1" points="26.62 8.24 21.08 8.24 21.08 13.99 18.52 13.99 18.52 8.24 12.97 8.24 12.97 6.21 26.62 6.21 26.62 8.24"/>
      <polygon class="cls-1" points="41.27 13.99 38.71 13.99 38.71 11.11 30.03 11.11 30.03 13.99 27.47 13.99 27.47 6.21 30.03 6.21 30.03 9.08 38.71 9.08 38.71 6.21 41.27 6.21 41.27 13.99"/>
      <path class="cls-1" d="M56.2,13.99h-10.7c-1.71,0-3.09-1.1-3.09-2.45v-2.87c0-1.35,1.39-2.45,3.09-2.45h10.7v2.03h-11.23v.84h11.23v2.03h-11.23v.84h11.23v2.03Z"/>
    </g>
  </g>
</svg>