<?xml version="1.0" encoding="utf-8"?>
<!-- Generator: Adobe Illustrator 27.9.3, SVG Export Plug-In . SVG Version: 9.03 Build 53313)  -->
<svg version="1.1" id="Layer_1" xmlns="http://www.w3.org/2000/svg" xmlns:xlink="http://www.w3.org/1999/xlink" x="0px" y="0px"
	 viewBox="0 0 190.4 190.1" style="enable-background:new 0 0 190.4 190.1;" xml:space="preserve">
<style type="text/css">
	.st0{fill:none;stroke:#FFFFFF;stroke-width:2;stroke-miterlimit:10;}
	.st1{fill:#FFFFFF;}
</style>
<g>
	<g>
		<path class="st0" d="M54.1,115.4H24.8c-6.6,0-11.9-5.3-11.9-11.7c0-3.7,1.7-6.9,4.4-9.1c-2.5-2.1-4-5.3-4-8.9
			c0-6.5,5-11.7,11.6-11.7h29.3c6.6,0,11.5,5.3,11.5,11.7c0,3.6-1.5,6.8-4,8.9c2.7,2.2,4.4,5.4,4.4,9.1
			C66.1,110.1,60.7,115.4,54.1,115.4z M56.2,89.3v-4.5H22.8v4.5H56.2z M56.2,104.6v-4.5H22.8v4.5C22.8,104.6,56.2,104.6,56.2,104.6z
			"/>
		<path class="st0" d="M121.8,102.3c0,7.2-5.3,13.1-11.9,13.1H80.6c-6.6,0-11.9-5.9-11.9-13.1V87c0-7.2,5.3-13.1,11.9-13.1h29.3
			c6.6,0,11.9,5.9,11.9,13.1V102.3z M111.9,104.6V84.8H78.5v19.8H111.9z"/>
		<path class="st0" d="M165.6,115.4h-29.3c-6.6,0-11.9-5.3-11.9-11.7c0-3.7,1.7-6.9,4.4-9.1c-2.5-2.1-4-5.3-4-8.9
			c0-6.5,5-11.7,11.6-11.7h29.3c6.6,0,11.5,5.3,11.5,11.7c0,3.6-1.5,6.8-4,8.9c2.7,2.2,4.4,5.4,4.4,9.1
			C177.5,110.1,172.2,115.4,165.6,115.4L165.6,115.4L165.6,115.4z M167.6,89.3v-4.5h-33.4v4.5H167.6L167.6,89.3z M167.6,104.6v-4.5
			h-33.4v4.5L167.6,104.6L167.6,104.6z"/>
	</g>
	<g>
		<path class="st1" d="M33.1,128.8h-3.2l-1.4-1.6h-8.3l-1.4,1.6h-3.2l6.5-7.3c0.5-0.6,1.3-1.1,2.2-1.1s1.7,0.5,2.2,1.1L33.1,128.8
			L33.1,128.8z M26.6,125.1l-2.3-2.6l-2.3,2.6C22,125.1,26.6,125.1,26.6,125.1z"/>
		<path class="st1" d="M46.4,128.8H35.7c-1.7,0-3.1-1.2-3.1-2.6v-3c0-1.4,1.4-2.6,3.1-2.6h10.7v2.2H35.1v3.9h11.2V128.8L46.4,128.8
			L46.4,128.8z"/>
		<path class="st1" d="M63.6,128.8h-3.2l-1.4-1.6h-8.3l-1.4,1.6h-3.2l6.5-7.3c0.5-0.6,1.3-1.1,2.2-1.1s1.7,0.5,2.2,1.1L63.6,128.8
			L63.6,128.8L63.6,128.8z M57.1,125.1l-2.3-2.6l-2.3,2.6C52.6,125.1,57.1,125.1,57.1,125.1z"/>
		<path class="st1" d="M77.4,126.2c0,1.4-1.4,2.6-3.1,2.6H63.6v-8.2h10.7c1.7,0,3.1,1.2,3.1,2.6V126.2L77.4,126.2L77.4,126.2z
			 M74.9,126.7v-3.9h-8.7v3.9H74.9z"/>
		<path class="st1" d="M92.3,128.8H81.6c-1.7,0-3.1-1.2-3.1-2.6v-3c0-1.4,1.4-2.6,3.1-2.6h10.7v2.2H81.1v0.9h11.2v2.2H81.1v0.9h11.2
			L92.3,128.8L92.3,128.8L92.3,128.8z"/>
		<path class="st1" d="M110.5,128.8H108v-6.3l-3.8,5.4c-0.4,0.6-1.3,1.1-2.2,1.1s-1.8-0.4-2.2-1.1l-3.8-5.4v6.3h-2.6v-6.3
			c0-1.2,1.2-2.2,2.6-2.2c1,0,1.8,0.5,2.3,1.2l3.7,5.3l3.7-5.3c0.5-0.7,1.3-1.2,2.3-1.2c1.4,0,2.6,0.9,2.6,2.2L110.5,128.8
			L110.5,128.8z"/>
		<path class="st1" d="M126.8,120.6l-6.4,5.2c-0.2,0.2-0.4,0.3-0.6,0.4v2.6h-2.6v-2.6c-0.2-0.1-0.4-0.2-0.6-0.4l-6.4-5.2h3.8
			l4.5,3.8l4.5-3.8H126.8z"/>
		<path class="st1" d="M126.1,128.8h-2.6v-2.2h2.6V128.8z"/>
		<path class="st1" d="M141.1,128.8h-10.7c-1.7,0-3.1-1.2-3.1-2.6v-3c0-1.4,1.4-2.6,3.1-2.6h10.7v2.2h-11.2v3.9h11.2V128.8
			L141.1,128.8L141.1,128.8z"/>
		<path class="st1" d="M155.5,126.2c0,1.4-1.4,2.6-3.1,2.6h-7.6c-1.7,0-3.1-1.2-3.1-2.6v-3c0-1.4,1.4-2.6,3.1-2.6h7.6
			c1.7,0,3.1,1.2,3.1,2.6V126.2z M153,126.7v-3.9h-8.7v3.9H153z"/>
		<path class="st1" d="M173.7,128.8h-2.6v-6.3l-3.8,5.4c-0.4,0.6-1.3,1.1-2.2,1.1s-1.8-0.4-2.2-1.1l-3.8-5.4v6.3h-2.6v-6.3
			c0-1.2,1.2-2.2,2.6-2.2c1,0,1.8,0.5,2.3,1.2l3.7,5.3l3.7-5.3c0.5-0.7,1.3-1.2,2.3-1.2c1.4,0,2.6,0.9,2.6,2.2L173.7,128.8
			L173.7,128.8L173.7,128.8z"/>
	</g>
	<g>
		<polygon class="st1" points="27.9,63.1 22.4,63.1 22.4,68.8 19.8,68.8 19.8,63.1 14.3,63.1 14.3,61.1 27.9,61.1 		"/>
		<polygon class="st1" points="42.6,68.8 40,68.8 40,66 31.3,66 31.3,68.8 28.8,68.8 28.8,61.1 31.3,61.1 31.3,63.9 40,63.9 
			40,61.1 42.6,61.1 		"/>
		<path class="st1" d="M57.5,68.8H46.8c-1.7,0-3.1-1.1-3.1-2.4v-2.9c0-1.3,1.4-2.5,3.1-2.5h10.7v2H46.3v0.8h11.2v2H46.3v0.8h11.2
			V68.8z"/>
	</g>
</g>
</svg>
